<?xml version="1.0" standalone="no"?>
<!DOCTYPE svg PUBLIC "-//W3C//DTD SVG 20010904//EN"
 "http://www.w3.org/TR/2001/REC-SVG-20010904/DTD/svg10.dtd">
<svg version="1.0" xmlns="http://www.w3.org/2000/svg"
 width="350.000000pt" height="350.000000pt" viewBox="0 0 350.000000 350.000000"
 preserveAspectRatio="xMidYMid meet">
<metadata>
Created by potrace 1.14, written by Peter Selinger 2001-2017
</metadata>
<g transform="translate(0.000000,350.000000) scale(0.100000,-0.100000)"
fill="#000000" stroke="none">
<path d="M1734 2871 c-5 -5 -29 -20 -54 -34 -25 -13 -101 -57 -170 -97 -69
-40 -183 -106 -255 -148 -71 -41 -186 -107 -255 -147 -69 -40 -141 -82 -160
-93 -68 -38 -115 -66 -120 -72 -3 -3 -21 -13 -40 -22 -47 -24 -117 -63 -132
-75 -7 -6 -44 -27 -83 -48 -38 -21 -82 -46 -97 -56 -14 -11 -28 -19 -31 -19
-3 0 -67 -37 -143 -82 -77 -45 -149 -86 -160 -92 -20 -10 -21 -18 -22 -139 0
-110 2 -129 16 -135 10 -3 52 -28 95 -54 43 -26 80 -48 82 -48 3 0 192 -109
225 -130 8 -5 47 -27 85 -49 86 -50 118 -68 365 -211 107 -62 215 -124 240
-138 25 -14 73 -43 108 -64 34 -21 64 -38 67 -38 3 0 29 -16 59 -35 30 -19 57
-35 60 -35 2 0 50 -27 105 -60 56 -33 106 -60 111 -60 6 0 10 -4 10 -8 0 -4
12 -13 28 -20 15 -7 38 -19 51 -26 19 -11 29 -12 50 -3 14 6 28 14 31 17 3 3
16 11 30 18 14 7 39 21 56 31 39 24 258 151 424 246 180 103 380 219 467 271
41 24 77 44 79 44 2 0 21 11 42 23 35 22 100 60 435 253 72 42 135 82 139 88
4 6 7 37 5 69 l-2 58 -165 95 c-91 53 -183 106 -205 118 -74 43 -150 86 -165
96 -15 9 -101 59 -155 90 -16 10 -70 41 -118 69 -49 28 -93 51 -98 51 -5 0 -9
5 -9 10 0 6 -4 10 -9 10 -5 0 -87 45 -181 100 -95 55 -176 100 -181 100 -5 0
-9 30 -9 68 0 73 5 67 -80 114 -54 30 -282 163 -326 189 -17 10 -35 15 -40 10z"/>
</g>
</svg>
